<svg id="svg" xmlns="http://www.w3.org/2000/svg" 
xmlns:xlink="http://www.w3.org/1999/xlink" 
width="400" height="391.70124481327804" 
viewBox="0, 0, 400,391.70124481327804"><g id="svgg">
<path id="path0" d="M165.678 32.243 C 31.105 56.128,-21.063 222.036,75.829 317.989 C 107.637 349.490,178.483 377.755,186.549 362.162 C 189.672 356.124,205.768 341.055,219.508 331.306 C 230.651 323.399,232.227 320.332,225.147 320.332 C 204.801 320.332,167.828 300.727,147.108 278.951 C 135.932 267.207,135.903 267.201,137.831 277.178 C 144.840 313.445,128.333 314.305,110.476 278.604 C 93.332 244.328,77.683 228.425,66.820 234.239 C 61.160 237.268,55.862 232.224,60.174 227.912 C 62.792 225.293,63.175 225.306,66.271 228.108 C 70.376 231.823,77.110 230.505,79.812 225.458 C 82.968 219.560,80.390 207.347,75.085 203.065 C 70.829 199.630,70.716 199.216,73.315 196.567 C 77.345 192.458,81.980 194.685,80.626 200.079 C 78.878 207.046,88.568 222.407,94.711 222.407 C 100.138 222.407,103.745 207.313,99.365 202.933 C 97.025 200.594,98.669 195.851,101.819 195.851 C 105.676 195.851,108.282 200.171,106.496 203.604 C 98.243 219.475,100.754 245.178,113.236 272.614 C 120.937 289.539,121.445 286.074,114.331 265.145 C 102.041 228.988,104.219 207.035,119.321 214.844 C 123.708 217.113,137.759 235.668,137.759 239.193 C 137.759 240.002,138.388 240.664,139.156 240.664 C 139.924 240.664,139.969 237.116,139.255 232.780 C 138.541 228.444,137.913 221.732,137.858 217.865 C 137.769 211.548,137.211 210.599,132.365 208.535 C 122.038 204.135,113.140 184.512,112.880 165.560 C 112.871 164.876,111.834 164.315,110.577 164.315 C 106.029 164.315,103.728 159.461,106.813 156.376 C 110.699 152.490,115.334 155.614,115.412 162.171 C 115.639 181.319,133.075 178.760,133.831 159.468 C 133.995 155.287,134.199 151.307,134.285 150.622 C 134.370 149.938,135.854 149.378,137.582 149.378 C 142.035 149.378,143.369 154.229,139.953 158.003 C 136.722 161.573,135.575 185.945,138.589 186.965 C 139.502 187.273,141.549 182.139,143.137 175.556 C 144.726 168.972,147.972 159.607,150.351 154.745 L 154.676 145.905 150.434 141.973 C 140.380 132.656,146.083 116.183,159.363 116.183 C 161.323 116.183,166.040 113.667,169.845 110.593 C 185.817 97.688,197.256 97.804,209.798 110.996 C 212.448 113.784,215.216 115.694,215.949 115.241 C 218.670 113.559,228.299 119.150,230.705 123.810 C 234.937 132.004,245.643 136.707,245.643 130.372 C 245.643 122.293,241.926 111.817,238.531 110.327 C 234.115 108.389,233.567 101.589,237.620 99.032 C 241.696 96.461,246.139 100.674,245.098 106.123 C 243.339 115.325,253.260 123.659,257.203 116.292 C 259.482 112.033,259.407 95.755,257.097 93.445 C 254.837 91.186,256.541 85.279,259.814 84.023 C 266.790 81.346,271.531 90.105,265.674 94.847 C 260.641 98.923,263.802 119.502,269.462 119.502 C 272.192 119.502,286.399 104.933,285.017 103.551 C 282.542 101.076,287.410 96.072,291.799 96.581 C 299.859 97.515,297.821 107.884,289.577 107.884 C 278.962 107.884,266.551 129.952,260.671 159.285 C 255.661 184.275,254.048 185.567,234.782 180.021 C 231.507 179.079,231.385 179.721,231.263 198.651 C 231.016 236.931,216.953 265.336,192.873 276.194 C 183.797 280.287,184.036 280.977,195.436 283.594 C 220.348 289.312,249.379 303.352,254.613 312.211 C 260.646 322.425,247.916 341.927,227.628 353.549 C 215.901 360.267,214.469 362.722,224.299 359.254 C 233.881 355.873,241.224 351.068,247.187 344.277 C 249.989 341.085,252.282 339.247,252.282 340.191 C 252.282 347.571,266.623 335.900,267.506 327.801 C 268.156 321.847,277.451 320.166,278.538 325.806 C 279.269 329.606,275.989 333.610,272.143 333.610 C 268.806 333.610,260.581 342.555,260.581 346.185 C 260.581 350.391,269.821 349.062,272.863 344.419 C 274.589 341.785,276.929 340.403,279.327 340.601 C 293.135 341.744,332.045 300.124,346.997 268.217 C 403.638 147.348,297.250 8.892,165.678 32.243 M230.045 138.563 C 228.560 140.831,225.486 143.152,223.216 143.722 C 220.945 144.292,219.087 144.911,219.087 145.098 C 219.087 152.935,233.914 169.273,241.041 169.288 C 248.359 169.304,253.169 151.387,247.133 146.595 C 245.036 144.931,241.303 141.515,238.837 139.004 C 233.379 133.448,233.396 133.449,230.045 138.563 M261.086 328.199 C 257.411 330.946,256.551 329.741,258.965 325.229 C 260.533 322.300,261.235 322.015,262.388 323.842 C 263.347 325.362,262.905 326.839,261.086 328.199 "
 stroke="#000000" fill="#000000" fill-rule="evenodd"></path></g></svg>