<svg id="svg" xmlns="http://www.w3.org/2000/svg" xmlns:xlink="http://www.w3.org/1999/xlink" width="400" height="398.1900452488687" viewBox="0, 0, 400,398.1900452488687" version="1.1"><g id="svgg"><path id="path0" d="M172.908 0.398 C 172.908 0.643,170.999 0.797,167.978 0.797 C 162.106 0.797,160.663 1.032,160.344 2.039 C 160.134 2.699,159.681 2.789,156.547 2.789 C 153.277 2.789,152.988 2.852,152.988 3.570 C 152.988 4.278,152.660 4.362,149.502 4.467 C 146.231 4.575,146.008 4.637,145.889 5.478 C 145.767 6.331,145.590 6.375,142.203 6.375 C 138.911 6.375,138.645 6.434,138.645 7.171 C 138.645 7.804,138.378 7.969,137.351 7.973 C 134.630 7.982,133.068 8.435,133.068 9.215 C 133.068 9.860,132.746 9.960,130.667 9.960 C 128.474 9.960,128.235 10.046,127.888 10.956 C 127.562 11.816,127.263 11.952,125.707 11.952 C 124.170 11.952,123.904 12.070,123.904 12.749 C 123.904 13.438,123.639 13.546,121.945 13.546 C 119.473 13.546,118.725 13.833,118.725 14.784 C 118.725 15.412,118.426 15.538,116.932 15.538 C 115.405 15.538,115.139 15.656,115.139 16.335 C 115.139 17.013,114.874 17.131,113.354 17.131 C 111.782 17.131,111.539 17.250,111.319 18.127 C 111.105 18.981,110.843 19.124,109.481 19.124 C 108.243 19.124,107.849 19.294,107.691 19.899 C 107.538 20.483,107.078 20.705,105.835 20.796 C 104.470 20.895,104.161 21.072,104.056 21.813 C 103.948 22.573,103.685 22.709,102.325 22.709 C 101.084 22.709,100.677 22.880,100.524 23.469 C 100.396 23.958,99.828 24.321,98.923 24.491 C 98.010 24.662,97.451 25.022,97.320 25.524 C 97.192 26.014,96.772 26.295,96.169 26.295 C 95.504 26.295,95.219 26.520,95.219 27.046 C 95.219 27.629,94.826 27.857,93.468 28.061 C 92.197 28.251,91.661 28.537,91.513 29.102 C 91.393 29.562,90.968 29.880,90.476 29.880 C 89.851 29.880,89.641 30.131,89.641 30.876 C 89.641 31.791,89.495 31.873,87.849 31.873 C 86.321 31.873,86.056 31.991,86.056 32.669 C 86.056 33.254,85.790 33.466,85.060 33.466 C 84.263 33.466,84.064 33.665,84.064 34.462 C 84.064 35.377,83.918 35.458,82.271 35.458 C 80.744 35.458,80.478 35.576,80.478 36.255 C 80.478 36.786,80.212 37.052,79.681 37.052 C 79.097 37.052,78.884 37.317,78.884 38.048 C 78.884 38.845,78.685 39.044,77.888 39.044 C 77.158 39.044,76.892 39.256,76.892 39.841 C 76.892 40.455,76.627 40.637,75.730 40.637 C 74.049 40.637,73.307 41.017,73.307 41.875 C 73.307 42.355,73.027 42.629,72.537 42.629 C 72.113 42.629,71.653 42.988,71.514 43.426 C 71.375 43.865,70.915 44.223,70.491 44.223 C 69.935 44.223,69.721 44.500,69.721 45.219 C 69.721 46.016,69.522 46.215,68.725 46.215 C 67.995 46.215,67.729 46.428,67.729 47.012 C 67.729 47.450,67.522 47.809,67.269 47.809 C 67.015 47.809,66.248 48.236,65.563 48.759 C 64.878 49.281,63.964 49.776,63.533 49.859 C 63.085 49.944,62.694 50.391,62.622 50.900 C 62.538 51.489,62.220 51.793,61.688 51.793 C 61.217 51.793,60.795 52.124,60.673 52.590 C 60.558 53.031,60.130 53.386,59.714 53.386 C 59.180 53.386,58.964 53.673,58.964 54.382 C 58.964 55.179,58.765 55.378,57.968 55.378 C 57.238 55.378,56.972 55.591,56.972 56.175 C 56.972 56.707,56.707 56.972,56.175 56.972 C 55.591 56.972,55.378 57.238,55.378 57.968 C 55.378 58.765,55.179 58.964,54.382 58.964 C 53.673 58.964,53.386 59.180,53.386 59.714 C 53.386 60.130,53.031 60.558,52.590 60.673 C 52.124 60.795,51.793 61.217,51.793 61.688 C 51.793 62.221,51.489 62.538,50.896 62.622 C 50.335 62.701,49.954 63.069,49.878 63.605 C 49.811 64.075,49.419 64.549,49.008 64.656 C 48.530 64.781,48.165 65.359,47.997 66.254 C 47.827 67.158,47.464 67.726,46.974 67.854 C 46.533 67.970,46.215 68.402,46.215 68.887 C 46.215 69.511,45.964 69.721,45.219 69.721 C 44.422 69.721,44.223 69.920,44.223 70.717 C 44.223 71.448,44.011 71.713,43.426 71.713 C 42.905 71.713,42.629 71.979,42.629 72.482 C 42.629 72.975,42.309 73.297,41.737 73.379 C 41.224 73.452,40.781 73.843,40.694 74.299 C 40.610 74.735,40.205 75.327,39.793 75.616 C 39.306 75.957,39.044 76.621,39.044 77.513 C 39.044 78.710,38.917 78.884,38.048 78.884 C 37.338 78.884,37.052 79.100,37.052 79.635 C 37.052 80.050,36.696 80.478,36.255 80.594 C 35.622 80.759,35.458 81.137,35.458 82.433 C 35.458 83.907,35.362 84.064,34.462 84.064 C 33.665 84.064,33.466 84.263,33.466 85.060 C 33.466 85.790,33.254 86.056,32.669 86.056 C 32.050 86.056,31.873 86.321,31.873 87.251 C 31.873 87.908,31.668 88.446,31.418 88.446 C 30.756 88.446,29.908 89.705,29.893 90.709 C 29.885 91.302,29.596 91.619,28.984 91.705 C 28.239 91.811,28.067 92.118,27.965 93.526 C 27.866 94.895,27.694 95.219,27.069 95.219 C 26.576 95.219,26.295 95.492,26.295 95.969 C 26.295 96.382,25.941 96.812,25.509 96.925 C 24.955 97.070,24.648 97.602,24.468 98.730 C 24.292 99.828,23.977 100.391,23.461 100.526 C 22.881 100.677,22.709 101.090,22.709 102.325 C 22.709 103.685,22.573 103.948,21.813 104.056 C 21.070 104.162,20.896 104.469,20.795 105.857 C 20.705 107.100,20.474 107.593,19.898 107.776 C 19.284 107.971,19.124 108.388,19.124 109.788 C 19.124 111.406,19.040 111.554,18.127 111.554 C 17.213 111.554,17.131 111.700,17.131 113.347 C 17.131 114.874,17.013 115.139,16.335 115.139 C 15.656 115.139,15.538 115.405,15.538 116.932 C 15.538 118.579,15.457 118.725,14.542 118.725 C 13.582 118.725,13.546 118.818,13.546 121.315 C 13.546 123.639,13.464 123.904,12.749 123.904 C 12.058 123.904,11.952 124.170,11.952 125.896 C 11.952 127.756,11.886 127.888,10.956 127.888 C 9.996 127.888,9.960 127.981,9.960 130.478 C 9.960 132.745,9.867 133.068,9.213 133.068 C 8.390 133.068,7.968 134.434,7.968 137.102 C 7.968 138.380,7.831 138.645,7.171 138.645 C 6.450 138.645,6.375 138.911,6.375 141.434 C 6.375 143.668,6.254 144.223,5.767 144.223 C 4.891 144.223,4.382 145.897,4.382 148.784 C 4.382 150.966,4.276 151.329,3.586 151.510 C 2.854 151.701,2.789 152.053,2.789 155.844 C 2.789 159.741,2.739 159.992,1.892 160.364 C 1.036 160.739,0.991 160.995,0.885 166.036 C 0.820 169.108,0.612 171.315,0.387 171.315 C 0.140 171.315,0.000 181.432,0.000 199.203 C 0.000 216.974,0.140 227.092,0.387 227.092 C 0.612 227.092,0.820 229.298,0.885 232.371 C 0.991 237.411,1.036 237.667,1.892 238.043 C 2.739 238.414,2.789 238.665,2.789 242.562 C 2.789 246.353,2.854 246.705,3.586 246.897 C 4.276 247.077,4.382 247.440,4.382 249.622 C 4.382 252.510,4.891 254.183,5.767 254.183 C 6.254 254.183,6.375 254.739,6.375 256.972 C 6.375 259.495,6.450 259.761,7.171 259.761 C 7.831 259.761,7.968 260.027,7.968 261.305 C 7.968 263.972,8.390 265.339,9.213 265.339 C 9.867 265.339,9.960 265.662,9.960 267.928 C 9.960 270.425,9.996 270.518,10.956 270.518 C 11.886 270.518,11.952 270.651,11.952 272.510 C 11.952 274.236,12.058 274.502,12.749 274.502 C 13.464 274.502,13.546 274.768,13.546 277.092 C 13.546 279.588,13.582 279.681,14.542 279.681 C 15.457 279.681,15.538 279.827,15.538 281.474 C 15.538 283.001,15.656 283.267,16.335 283.267 C 17.013 283.267,17.131 283.533,17.131 285.060 C 17.131 286.707,17.213 286.853,18.127 286.853 C 19.040 286.853,19.124 287.000,19.124 288.619 C 19.124 290.018,19.284 290.436,19.898 290.630 C 20.474 290.813,20.705 291.307,20.795 292.550 C 20.896 293.937,21.070 294.245,21.813 294.350 C 22.573 294.458,22.709 294.722,22.709 296.081 C 22.709 297.317,22.881 297.729,23.461 297.881 C 23.977 298.016,24.292 298.578,24.468 299.676 C 24.648 300.805,24.955 301.336,25.509 301.481 C 25.941 301.594,26.295 302.024,26.295 302.437 C 26.295 302.914,26.576 303.187,27.069 303.187 C 27.694 303.187,27.866 303.512,27.965 304.880 C 28.067 306.288,28.239 306.595,28.984 306.701 C 29.596 306.788,29.885 307.104,29.893 307.697 C 29.908 308.701,30.756 309.960,31.418 309.960 C 31.668 309.960,31.873 310.498,31.873 311.155 C 31.873 312.085,32.050 312.351,32.669 312.351 C 33.254 312.351,33.466 312.616,33.466 313.347 C 33.466 314.143,33.665 314.343,34.462 314.343 C 35.362 314.343,35.458 314.500,35.458 315.974 C 35.458 317.269,35.622 317.647,36.255 317.813 C 36.696 317.928,37.052 318.356,37.052 318.772 C 37.052 319.306,37.338 319.522,38.048 319.522 C 38.917 319.522,39.044 319.696,39.044 320.894 C 39.044 321.785,39.306 322.449,39.793 322.790 C 40.205 323.079,40.610 323.672,40.694 324.108 C 40.781 324.564,41.224 324.954,41.737 325.028 C 42.309 325.109,42.629 325.431,42.629 325.924 C 42.629 326.428,42.905 326.693,43.426 326.693 C 44.011 326.693,44.223 326.959,44.223 327.689 C 44.223 328.486,44.422 328.685,45.219 328.685 C 45.964 328.685,46.215 328.895,46.215 329.519 C 46.215 330.005,46.533 330.437,46.974 330.552 C 47.464 330.680,47.827 331.248,47.997 332.153 C 48.165 333.048,48.530 333.625,49.008 333.750 C 49.419 333.858,49.811 334.331,49.878 334.802 C 49.954 335.337,50.335 335.705,50.896 335.785 C 51.489 335.869,51.793 336.185,51.793 336.718 C 51.793 337.190,52.124 337.611,52.590 337.733 C 53.031 337.848,53.386 338.277,53.386 338.692 C 53.386 339.227,53.673 339.442,54.382 339.442 C 55.179 339.442,55.378 339.641,55.378 340.438 C 55.378 341.169,55.591 341.434,56.175 341.434 C 56.707 341.434,56.972 341.700,56.972 342.231 C 56.972 342.815,57.238 343.028,57.968 343.028 C 58.765 343.028,58.964 343.227,58.964 344.024 C 58.964 344.734,59.180 345.020,59.714 345.020 C 60.130 345.020,60.558 345.376,60.673 345.817 C 60.795 346.282,61.217 346.614,61.688 346.614 C 62.220 346.614,62.538 346.918,62.622 347.506 C 62.694 348.015,63.085 348.462,63.533 348.548 C 63.964 348.630,64.878 349.125,65.563 349.648 C 66.248 350.170,67.015 350.598,67.269 350.598 C 67.522 350.598,67.729 350.956,67.729 351.394 C 67.729 351.979,67.995 352.191,68.725 352.191 C 69.522 352.191,69.721 352.390,69.721 353.187 C 69.721 353.906,69.935 354.183,70.491 354.183 C 70.915 354.183,71.375 354.542,71.514 354.980 C 71.653 355.418,72.113 355.777,72.537 355.777 C 73.027 355.777,73.307 356.051,73.307 356.531 C 73.307 357.390,74.049 357.769,75.730 357.769 C 76.627 357.769,76.892 357.951,76.892 358.566 C 76.892 359.150,77.158 359.363,77.888 359.363 C 78.685 359.363,78.884 359.562,78.884 360.359 C 78.884 361.089,79.097 361.355,79.681 361.355 C 80.212 361.355,80.478 361.620,80.478 362.151 C 80.478 362.830,80.744 362.948,82.271 362.948 C 83.918 362.948,84.064 363.029,84.064 363.944 C 84.064 364.741,84.263 364.940,85.060 364.940 C 85.790 364.940,86.056 365.153,86.056 365.737 C 86.056 366.416,86.321 366.534,87.849 366.534 C 89.495 366.534,89.641 366.615,89.641 367.530 C 89.641 368.275,89.851 368.526,90.476 368.526 C 90.968 368.526,91.393 368.845,91.513 369.305 C 91.661 369.870,92.197 370.155,93.468 370.346 C 94.826 370.549,95.219 370.777,95.219 371.360 C 95.219 371.886,95.504 372.112,96.169 372.112 C 96.772 372.112,97.192 372.392,97.320 372.882 C 97.451 373.384,98.010 373.744,98.923 373.915 C 99.828 374.085,100.396 374.448,100.524 374.938 C 100.677 375.526,101.084 375.697,102.325 375.697 C 103.685 375.697,103.948 375.834,104.056 376.594 C 104.161 377.335,104.470 377.511,105.835 377.611 C 107.078 377.701,107.538 377.923,107.691 378.507 C 107.849 379.112,108.243 379.283,109.481 379.283 C 110.843 379.283,111.105 379.425,111.319 380.279 C 111.539 381.156,111.782 381.275,113.354 381.275 C 114.874 381.275,115.139 381.393,115.139 382.072 C 115.139 382.750,115.405 382.869,116.932 382.869 C 118.426 382.869,118.725 382.994,118.725 383.623 C 118.725 384.573,119.473 384.861,121.945 384.861 C 123.639 384.861,123.904 384.969,123.904 385.657 C 123.904 386.337,124.170 386.454,125.707 386.454 C 127.263 386.454,127.562 386.590,127.888 387.450 C 128.235 388.360,128.474 388.446,130.667 388.446 C 132.746 388.446,133.068 388.546,133.068 389.191 C 133.068 389.971,134.630 390.425,137.351 390.434 C 138.378 390.437,138.645 390.603,138.645 391.235 C 138.645 391.972,138.911 392.032,142.203 392.032 C 145.590 392.032,145.767 392.075,145.889 392.928 C 146.008 393.769,146.231 393.832,149.502 393.940 C 152.660 394.044,152.988 394.128,152.988 394.836 C 152.988 395.554,153.277 395.618,156.547 395.618 C 159.681 395.618,160.134 395.707,160.344 396.367 C 160.663 397.375,162.106 397.610,167.978 397.610 C 170.999 397.610,172.908 397.764,172.908 398.008 C 172.908 398.270,182.205 398.406,200.000 398.406 C 217.795 398.406,227.092 398.270,227.092 398.008 C 227.092 397.764,229.001 397.610,232.022 397.610 C 237.894 397.610,239.337 397.375,239.656 396.367 C 239.866 395.707,240.319 395.618,243.453 395.618 C 246.723 395.618,247.012 395.554,247.012 394.836 C 247.012 394.128,247.340 394.044,250.498 393.940 C 253.769 393.832,253.992 393.769,254.111 392.928 C 254.233 392.075,254.410 392.032,257.797 392.032 C 261.089 392.032,261.355 391.972,261.355 391.235 C 261.355 390.603,261.622 390.437,262.649 390.434 C 265.370 390.425,266.932 389.971,266.932 389.191 C 266.932 388.546,267.254 388.446,269.333 388.446 C 271.526 388.446,271.765 388.360,272.112 387.450 C 272.438 386.590,272.737 386.454,274.293 386.454 C 275.830 386.454,276.096 386.337,276.096 385.657 C 276.096 384.969,276.361 384.861,278.055 384.861 C 280.527 384.861,281.275 384.573,281.275 383.623 C 281.275 382.994,281.574 382.869,283.068 382.869 C 284.595 382.869,284.861 382.750,284.861 382.072 C 284.861 381.393,285.126 381.275,286.646 381.275 C 288.218 381.275,288.461 381.156,288.681 380.279 C 288.895 379.425,289.157 379.283,290.519 379.283 C 291.757 379.283,292.151 379.112,292.309 378.507 C 292.462 377.923,292.922 377.701,294.165 377.611 C 295.530 377.511,295.839 377.335,295.944 376.594 C 296.052 375.834,296.315 375.697,297.675 375.697 C 298.916 375.697,299.323 375.526,299.476 374.938 C 299.604 374.448,300.172 374.085,301.077 373.915 C 301.990 373.744,302.549 373.384,302.680 372.882 C 302.808 372.392,303.228 372.112,303.831 372.112 C 304.496 372.112,304.781 371.886,304.781 371.360 C 304.781 370.777,305.174 370.549,306.532 370.346 C 307.803 370.155,308.339 369.870,308.487 369.305 C 308.607 368.845,309.032 368.526,309.524 368.526 C 310.149 368.526,310.359 368.275,310.359 367.530 C 310.359 366.615,310.505 366.534,312.151 366.534 C 313.679 366.534,313.944 366.416,313.944 365.737 C 313.944 365.153,314.210 364.940,314.940 364.940 C 315.737 364.940,315.936 364.741,315.936 363.944 C 315.936 363.029,316.082 362.948,317.729 362.948 C 319.256 362.948,319.522 362.830,319.522 362.151 C 319.522 361.620,319.788 361.355,320.319 361.355 C 320.903 361.355,321.116 361.089,321.116 360.359 C 321.116 359.562,321.315 359.363,322.112 359.363 C 322.842 359.363,323.108 359.150,323.108 358.566 C 323.108 357.951,323.373 357.769,324.270 357.769 C 325.951 357.769,326.693 357.390,326.693 356.531 C 326.693 356.051,326.973 355.777,327.463 355.777 C 327.887 355.777,328.347 355.418,328.486 354.980 C 328.625 354.542,329.085 354.183,329.509 354.183 C 330.065 354.183,330.279 353.906,330.279 353.187 C 330.279 352.390,330.478 352.191,331.275 352.191 C 332.005 352.191,332.271 351.979,332.271 351.394 C 332.271 350.956,332.478 350.598,332.731 350.598 C 332.985 350.598,333.752 350.170,334.437 349.648 C 335.122 349.125,336.036 348.630,336.467 348.548 C 336.915 348.462,337.306 348.015,337.378 347.506 C 337.462 346.918,337.780 346.614,338.312 346.614 C 338.783 346.614,339.205 346.282,339.327 345.817 C 339.442 345.376,339.870 345.020,340.286 345.020 C 340.820 345.020,341.036 344.734,341.036 344.024 C 341.036 343.227,341.235 343.028,342.032 343.028 C 342.762 343.028,343.028 342.815,343.028 342.231 C 343.028 341.700,343.293 341.434,343.825 341.434 C 344.409 341.434,344.622 341.169,344.622 340.438 C 344.622 339.641,344.821 339.442,345.618 339.442 C 346.327 339.442,346.614 339.227,346.614 338.692 C 346.614 338.277,346.969 337.848,347.410 337.733 C 347.876 337.611,348.207 337.190,348.207 336.718 C 348.207 336.185,348.511 335.869,349.104 335.785 C 349.665 335.705,350.046 335.337,350.122 334.802 C 350.189 334.331,350.581 333.858,350.992 333.750 C 351.470 333.625,351.835 333.048,352.003 332.153 C 352.173 331.248,352.536 330.680,353.026 330.552 C 353.467 330.437,353.785 330.005,353.785 329.519 C 353.785 328.895,354.036 328.685,354.781 328.685 C 355.578 328.685,355.777 328.486,355.777 327.689 C 355.777 326.959,355.989 326.693,356.574 326.693 C 357.095 326.693,357.371 326.428,357.371 325.924 C 357.371 325.431,357.691 325.109,358.263 325.028 C 358.776 324.954,359.219 324.564,359.306 324.108 C 359.390 323.672,359.795 323.079,360.207 322.790 C 360.694 322.449,360.956 321.785,360.956 320.894 C 360.956 319.696,361.083 319.522,361.952 319.522 C 362.662 319.522,362.948 319.306,362.948 318.772 C 362.948 318.356,363.304 317.928,363.745 317.813 C 364.378 317.647,364.542 317.269,364.542 315.974 C 364.542 314.500,364.638 314.343,365.538 314.343 C 366.335 314.343,366.534 314.143,366.534 313.347 C 366.534 312.616,366.746 312.351,367.331 312.351 C 367.950 312.351,368.127 312.085,368.127 311.155 C 368.127 310.498,368.332 309.960,368.582 309.960 C 369.244 309.960,370.092 308.701,370.107 307.697 C 370.115 307.104,370.404 306.788,371.016 306.701 C 371.761 306.595,371.933 306.288,372.035 304.880 C 372.134 303.512,372.306 303.187,372.931 303.187 C 373.424 303.187,373.705 302.914,373.705 302.437 C 373.705 302.024,374.059 301.594,374.491 301.481 C 375.045 301.336,375.352 300.805,375.532 299.676 C 375.708 298.578,376.023 298.016,376.539 297.881 C 377.119 297.729,377.291 297.317,377.291 296.081 C 377.291 294.722,377.427 294.458,378.187 294.350 C 378.930 294.245,379.104 293.937,379.205 292.550 C 379.295 291.307,379.526 290.813,380.102 290.630 C 380.716 290.436,380.876 290.018,380.876 288.619 C 380.876 287.000,380.960 286.853,381.873 286.853 C 382.787 286.853,382.869 286.707,382.869 285.060 C 382.869 283.533,382.987 283.267,383.665 283.267 C 384.344 283.267,384.462 283.001,384.462 281.474 C 384.462 279.827,384.543 279.681,385.458 279.681 C 386.418 279.681,386.454 279.588,386.454 277.092 C 386.454 274.768,386.536 274.502,387.251 274.502 C 387.942 274.502,388.048 274.236,388.048 272.510 C 388.048 270.651,388.114 270.518,389.044 270.518 C 390.004 270.518,390.040 270.425,390.040 267.928 C 390.040 265.662,390.133 265.339,390.787 265.339 C 391.610 265.339,392.032 263.972,392.032 261.305 C 392.032 260.027,392.169 259.761,392.829 259.761 C 393.550 259.761,393.625 259.495,393.625 256.972 C 393.625 254.739,393.746 254.183,394.233 254.183 C 395.109 254.183,395.618 252.510,395.618 249.622 C 395.618 247.440,395.724 247.077,396.414 246.897 C 397.146 246.705,397.211 246.353,397.211 242.562 C 397.211 238.665,397.261 238.414,398.108 238.043 C 398.964 237.667,399.009 237.411,399.115 232.371 C 399.180 229.298,399.388 227.092,399.613 227.092 C 399.860 227.092,400.000 216.974,400.000 199.203 C 400.000 181.432,399.860 171.315,399.613 171.315 C 399.388 171.315,399.180 169.108,399.115 166.036 C 399.009 160.995,398.964 160.739,398.108 160.364 C 397.261 159.992,397.211 159.741,397.211 155.844 C 397.211 152.053,397.146 151.701,396.414 151.510 C 395.724 151.329,395.618 150.966,395.618 148.784 C 395.618 145.897,395.109 144.223,394.233 144.223 C 393.746 144.223,393.625 143.668,393.625 141.434 C 393.625 138.911,393.550 138.645,392.829 138.645 C 392.169 138.645,392.032 138.380,392.032 137.102 C 392.032 134.434,391.610 133.068,390.787 133.068 C 390.133 133.068,390.040 132.745,390.040 130.478 C 390.040 127.981,390.004 127.888,389.044 127.888 C 388.114 127.888,388.048 127.756,388.048 125.896 C 388.048 124.170,387.942 123.904,387.251 123.904 C 386.536 123.904,386.454 123.639,386.454 121.315 C 386.454 118.818,386.418 118.725,385.458 118.725 C 384.543 118.725,384.462 118.579,384.462 116.932 C 384.462 115.405,384.344 115.139,383.665 115.139 C 382.987 115.139,382.869 114.874,382.869 113.347 C 382.869 111.700,382.787 111.554,381.873 111.554 C 380.960 111.554,380.876 111.406,380.876 109.788 C 380.876 108.388,380.716 107.971,380.102 107.776 C 379.526 107.593,379.295 107.100,379.205 105.857 C 379.104 104.469,378.930 104.162,378.187 104.056 C 377.427 103.948,377.291 103.685,377.291 102.325 C 377.291 101.090,377.119 100.677,376.539 100.526 C 376.023 100.391,375.708 99.828,375.532 98.730 C 375.352 97.602,375.045 97.070,374.491 96.925 C 374.059 96.812,373.705 96.382,373.705 95.969 C 373.705 95.492,373.424 95.219,372.931 95.219 C 372.306 95.219,372.134 94.895,372.035 93.526 C 371.933 92.118,371.761 91.811,371.016 91.705 C 370.404 91.619,370.115 91.302,370.107 90.709 C 370.092 89.705,369.244 88.446,368.582 88.446 C 368.332 88.446,368.127 87.908,368.127 87.251 C 368.127 86.321,367.950 86.056,367.331 86.056 C 366.746 86.056,366.534 85.790,366.534 85.060 C 366.534 84.263,366.335 84.064,365.538 84.064 C 364.638 84.064,364.542 83.907,364.542 82.433 C 364.542 81.137,364.378 80.759,363.745 80.594 C 363.304 80.478,362.948 80.050,362.948 79.635 C 362.948 79.100,362.662 78.884,361.952 78.884 C 361.083 78.884,360.956 78.710,360.956 77.513 C 360.956 76.621,360.694 75.957,360.207 75.616 C 359.795 75.327,359.390 74.735,359.306 74.299 C 359.219 73.843,358.776 73.452,358.263 73.379 C 357.691 73.297,357.371 72.975,357.371 72.482 C 357.371 71.979,357.095 71.713,356.574 71.713 C 355.989 71.713,355.777 71.448,355.777 70.717 C 355.777 69.920,355.578 69.721,354.781 69.721 C 354.036 69.721,353.785 69.511,353.785 68.887 C 353.785 68.402,353.467 67.970,353.026 67.854 C 352.536 67.726,352.173 67.158,352.003 66.254 C 351.835 65.359,351.470 64.781,350.992 64.656 C 350.581 64.549,350.189 64.075,350.122 63.605 C 350.046 63.069,349.665 62.701,349.104 62.622 C 348.511 62.538,348.207 62.221,348.207 61.688 C 348.207 61.217,347.876 60.795,347.410 60.673 C 346.969 60.558,346.614 60.130,346.614 59.714 C 346.614 59.180,346.327 58.964,345.618 58.964 C 344.821 58.964,344.622 58.765,344.622 57.968 C 344.622 57.238,344.409 56.972,343.825 56.972 C 343.293 56.972,343.028 56.707,343.028 56.175 C 343.028 55.591,342.762 55.378,342.032 55.378 C 341.235 55.378,341.036 55.179,341.036 54.382 C 341.036 53.673,340.820 53.386,340.286 53.386 C 339.870 53.386,339.442 53.031,339.327 52.590 C 339.205 52.124,338.783 51.793,338.312 51.793 C 337.780 51.793,337.462 51.489,337.378 50.900 C 337.306 50.391,336.915 49.944,336.467 49.859 C 336.036 49.776,335.122 49.281,334.437 48.759 C 333.752 48.236,332.985 47.809,332.731 47.809 C 332.478 47.809,332.271 47.450,332.271 47.012 C 332.271 46.428,332.005 46.215,331.275 46.215 C 330.478 46.215,330.279 46.016,330.279 45.219 C 330.279 44.500,330.065 44.223,329.509 44.223 C 329.085 44.223,328.625 43.865,328.486 43.426 C 328.347 42.988,327.887 42.629,327.463 42.629 C 326.973 42.629,326.693 42.355,326.693 41.875 C 326.693 41.017,325.951 40.637,324.270 40.637 C 323.373 40.637,323.108 40.455,323.108 39.841 C 323.108 39.256,322.842 39.044,322.112 39.044 C 321.315 39.044,321.116 38.845,321.116 38.048 C 321.116 37.317,320.903 37.052,320.319 37.052 C 319.788 37.052,319.522 36.786,319.522 36.255 C 319.522 35.576,319.256 35.458,317.729 35.458 C 316.082 35.458,315.936 35.377,315.936 34.462 C 315.936 33.665,315.737 33.466,314.940 33.466 C 314.210 33.466,313.944 33.254,313.944 32.669 C 313.944 31.991,313.679 31.873,312.151 31.873 C 310.505 31.873,310.359 31.791,310.359 30.876 C 310.359 30.131,310.149 29.880,309.524 29.880 C 309.032 29.880,308.607 29.562,308.487 29.102 C 308.339 28.537,307.803 28.251,306.532 28.061 C 305.174 27.857,304.781 27.629,304.781 27.046 C 304.781 26.520,304.496 26.295,303.831 26.295 C 303.228 26.295,302.808 26.014,302.680 25.524 C 302.549 25.022,301.990 24.662,301.077 24.491 C 300.172 24.321,299.604 23.958,299.476 23.469 C 299.323 22.880,298.916 22.709,297.675 22.709 C 296.315 22.709,296.052 22.573,295.944 21.813 C 295.839 21.072,295.530 20.895,294.165 20.796 C 292.922 20.705,292.462 20.483,292.309 19.899 C 292.151 19.294,291.757 19.124,290.519 19.124 C 289.157 19.124,288.895 18.981,288.681 18.127 C 288.461 17.250,288.218 17.131,286.646 17.131 C 285.126 17.131,284.861 17.013,284.861 16.335 C 284.861 15.656,284.595 15.538,283.068 15.538 C 281.574 15.538,281.275 15.412,281.275 14.784 C 281.275 13.833,280.527 13.546,278.055 13.546 C 276.361 13.546,276.096 13.438,276.096 12.749 C 276.096 12.070,275.830 11.952,274.293 11.952 C 272.737 11.952,272.438 11.816,272.112 10.956 C 271.765 10.046,271.526 9.960,269.333 9.960 C 267.254 9.960,266.932 9.860,266.932 9.215 C 266.932 8.435,265.370 7.982,262.649 7.973 C 261.622 7.969,261.355 7.804,261.355 7.171 C 261.355 6.434,261.089 6.375,257.797 6.375 C 254.410 6.375,254.233 6.331,254.111 5.478 C 253.992 4.637,253.769 4.575,250.498 4.467 C 247.340 4.362,247.012 4.278,247.012 3.570 C 247.012 2.852,246.723 2.789,243.453 2.789 C 240.319 2.789,239.866 2.699,239.656 2.039 C 239.337 1.032,237.894 0.797,232.022 0.797 C 229.001 0.797,227.092 0.643,227.092 0.398 C 227.092 0.137,217.795 0.000,200.000 0.000 C 182.205 0.000,172.908 0.137,172.908 0.398 M208.964 16.932 C 210.498 17.240,214.801 17.665,218.526 17.877 C 222.251 18.089,225.795 18.453,226.401 18.686 C 227.007 18.918,229.159 19.302,231.182 19.538 C 233.205 19.774,235.892 20.315,237.153 20.741 C 238.414 21.166,240.066 21.514,240.823 21.514 C 241.581 21.514,243.060 21.851,244.109 22.262 C 245.158 22.674,246.823 23.143,247.809 23.305 C 248.795 23.467,250.050 23.826,250.598 24.102 C 251.145 24.378,252.540 24.805,253.697 25.049 C 254.853 25.294,256.198 25.744,256.685 26.049 C 257.171 26.354,258.287 26.729,259.163 26.881 C 260.040 27.034,261.316 27.502,261.999 27.922 C 262.682 28.342,263.579 28.687,263.991 28.689 C 264.404 28.691,265.637 29.134,266.733 29.672 C 267.829 30.211,268.994 30.664,269.323 30.678 C 269.651 30.691,270.273 30.970,270.705 31.296 C 271.136 31.622,272.212 32.081,273.095 32.316 C 273.979 32.551,274.970 32.982,275.299 33.273 C 275.627 33.564,276.382 33.924,276.976 34.072 C 277.569 34.220,278.256 34.583,278.502 34.879 C 278.747 35.175,279.606 35.632,280.410 35.894 C 281.215 36.156,282.300 36.703,282.823 37.110 C 283.345 37.516,284.097 37.849,284.492 37.849 C 284.888 37.849,285.332 38.043,285.479 38.280 C 285.625 38.517,286.487 39.063,287.394 39.492 C 288.302 39.922,289.761 40.707,290.637 41.237 C 291.514 41.767,292.871 42.553,293.652 42.984 C 294.434 43.414,295.307 44.048,295.593 44.393 C 295.879 44.738,296.297 45.020,296.521 45.020 C 296.746 45.020,297.911 45.692,299.111 46.514 C 300.311 47.336,301.692 48.277,302.181 48.606 C 304.816 50.379,305.555 50.909,307.445 52.378 C 308.582 53.261,310.163 54.432,310.960 54.980 C 311.756 55.528,312.799 56.348,313.276 56.803 C 313.753 57.258,316.026 59.160,318.327 61.029 C 323.136 64.936,334.808 76.467,337.154 79.630 C 338.027 80.807,339.123 82.150,339.590 82.616 C 340.906 83.929,345.483 89.643,346.813 91.634 C 347.470 92.618,348.770 94.438,349.701 95.678 C 350.632 96.918,351.394 98.107,351.394 98.320 C 351.394 98.533,351.676 98.941,352.021 99.227 C 352.366 99.513,353.038 100.456,353.515 101.322 C 354.882 103.804,355.209 104.330,355.853 105.077 C 356.184 105.462,357.385 107.480,358.521 109.562 C 359.656 111.643,360.761 113.616,360.975 113.944 C 361.189 114.273,361.719 115.259,362.151 116.135 C 362.584 117.012,363.104 117.998,363.306 118.327 C 363.509 118.655,364.152 120.000,364.735 121.315 C 365.319 122.629,366.231 124.557,366.762 125.598 C 367.294 126.639,367.735 127.714,367.742 127.988 C 367.748 128.262,368.195 129.382,368.734 130.478 C 369.273 131.574,369.717 132.739,369.720 133.068 C 369.724 133.396,370.083 134.203,370.518 134.861 C 370.953 135.518,371.311 136.417,371.312 136.858 C 371.314 137.300,371.650 138.287,372.060 139.052 C 372.470 139.817,372.939 141.233,373.102 142.200 C 373.266 143.167,373.736 144.510,374.148 145.186 C 374.560 145.862,374.898 146.919,374.899 147.536 C 374.900 148.152,375.251 149.497,375.679 150.524 C 376.108 151.550,376.644 153.446,376.871 154.736 C 377.098 156.026,377.450 157.282,377.653 157.527 C 377.857 157.771,378.224 159.495,378.469 161.356 C 378.715 163.218,379.161 165.375,379.461 166.150 C 379.760 166.926,380.209 169.596,380.458 172.085 C 380.707 174.573,381.098 176.961,381.328 177.390 C 382.628 179.819,382.467 218.877,381.140 223.108 C 380.830 224.094,380.445 226.604,380.282 228.685 C 380.120 230.767,379.748 232.937,379.456 233.508 C 379.163 234.079,378.741 236.005,378.517 237.788 C 378.294 239.572,377.861 241.525,377.556 242.129 C 377.250 242.733,376.876 244.201,376.724 245.392 C 376.572 246.583,376.099 248.321,375.674 249.255 C 375.248 250.188,374.900 251.458,374.900 252.076 C 374.900 252.694,374.568 253.824,374.162 254.588 C 373.756 255.351,373.293 256.693,373.133 257.570 C 372.972 258.446,372.498 259.722,372.078 260.406 C 371.658 261.089,371.309 261.985,371.302 262.398 C 371.295 262.810,370.849 264.044,370.310 265.139 C 369.771 266.235,369.328 267.405,369.326 267.740 C 369.324 268.075,369.078 268.702,368.779 269.134 C 368.480 269.567,368.100 270.369,367.934 270.916 C 367.572 272.119,365.838 276.060,365.306 276.892 C 365.096 277.221,364.655 278.118,364.325 278.884 C 363.995 279.651,363.550 280.548,363.336 280.876 C 363.122 281.205,362.768 281.922,362.549 282.470 C 362.331 283.018,361.970 283.735,361.748 284.064 C 361.526 284.392,360.979 285.378,360.532 286.255 C 360.085 287.131,359.202 288.745,358.569 289.841 C 357.936 290.936,357.247 292.200,357.036 292.650 C 356.826 293.099,356.053 294.328,355.319 295.380 C 354.585 296.432,353.807 297.588,353.590 297.949 C 351.469 301.486,347.827 306.686,345.039 310.159 C 343.808 311.693,342.511 313.396,342.156 313.944 C 341.802 314.492,340.822 315.697,339.979 316.621 C 339.136 317.545,337.374 319.517,336.064 321.003 C 332.793 324.714,323.895 333.588,320.556 336.470 C 319.042 337.776,317.312 339.314,316.711 339.888 C 313.870 342.598,299.019 353.386,298.128 353.386 C 297.911 353.386,297.412 353.742,297.019 354.175 C 295.904 355.408,293.907 355.601,292.006 354.661 L 290.379 353.856 288.516 354.672 C 286.328 355.631,284.462 357.539,284.462 358.818 C 284.462 361.215,283.048 362.405,279.730 362.797 C 278.717 362.916,277.419 363.191,276.844 363.407 C 275.766 363.812,273.926 363.267,272.409 362.094 C 271.744 361.581,271.749 361.451,272.498 359.485 C 274.977 352.978,281.126 347.410,285.832 347.410 C 290.742 347.410,293.723 342.384,291.421 337.985 C 289.571 334.451,285.004 332.530,282.925 334.411 C 282.531 334.768,282.033 335.060,281.820 335.060 C 281.606 335.060,280.813 335.697,280.058 336.477 L 278.685 337.894 278.755 341.731 C 278.835 346.191,279.054 345.778,273.784 351.129 C 267.951 357.052,264.273 358.200,262.491 354.653 C 261.631 352.942,261.642 352.938,259.231 355.856 C 256.566 359.081,250.312 365.210,248.008 366.854 C 247.789 367.010,247.072 367.483,246.414 367.905 C 245.757 368.327,244.982 368.908,244.693 369.197 C 244.403 369.485,243.938 369.721,243.659 369.721 C 243.380 369.721,242.836 370.070,242.451 370.495 C 242.065 370.921,241.243 371.381,240.624 371.517 C 240.004 371.653,239.291 372.013,239.039 372.316 C 238.788 372.619,237.924 373.079,237.120 373.337 C 236.315 373.595,235.388 374.028,235.060 374.300 C 234.731 374.571,233.924 374.918,233.267 375.069 C 232.610 375.221,231.352 375.689,230.472 376.109 C 229.309 376.665,228.547 376.787,227.683 376.555 C 226.108 376.134,226.171 375.234,227.804 374.811 C 228.525 374.624,229.448 374.138,229.855 373.730 C 230.263 373.323,231.152 372.867,231.832 372.718 C 232.512 372.569,233.068 372.275,233.068 372.066 C 233.068 371.856,233.830 371.333,234.761 370.903 C 237.037 369.853,241.012 367.255,244.960 364.237 C 246.748 362.871,248.305 361.753,248.419 361.753 C 248.533 361.753,249.417 360.991,250.384 360.060 C 251.350 359.128,252.825 357.709,253.660 356.905 C 256.417 354.254,262.151 347.074,262.151 346.274 C 262.151 346.108,262.600 345.364,263.147 344.622 C 263.695 343.879,264.143 343.030,264.143 342.735 C 264.143 342.440,264.485 341.713,264.903 341.119 C 265.321 340.526,265.784 339.329,265.933 338.460 C 266.082 337.591,266.487 336.336,266.833 335.671 C 267.891 333.641,267.754 327.158,266.623 325.721 C 266.136 325.101,265.737 324.375,265.737 324.108 C 265.737 323.841,265.334 323.155,264.841 322.584 C 264.348 322.012,263.586 321.090,263.147 320.534 C 262.289 319.445,257.578 315.538,257.124 315.538 C 256.972 315.538,256.260 315.090,255.542 314.542 C 254.824 313.994,253.980 313.546,253.666 313.546 C 253.352 313.546,252.668 313.210,252.145 312.800 C 251.072 311.957,245.738 308.973,244.223 308.367 C 243.675 308.148,242.958 307.788,242.629 307.567 C 242.301 307.346,241.584 306.970,241.036 306.730 C 240.488 306.491,239.126 305.865,238.008 305.339 C 236.890 304.813,235.746 304.382,235.465 304.382 C 235.184 304.382,234.396 304.043,233.712 303.629 C 233.029 303.214,231.858 302.745,231.109 302.586 C 230.360 302.428,229.195 301.961,228.519 301.549 C 227.844 301.137,226.864 300.799,226.342 300.798 C 225.820 300.797,224.834 300.460,224.151 300.048 C 223.467 299.637,222.271 299.187,221.492 299.049 C 220.712 298.911,219.375 298.441,218.519 298.004 C 217.663 297.568,216.546 297.211,216.035 297.211 C 215.525 297.211,214.443 296.874,213.630 296.462 C 212.817 296.050,211.345 295.582,210.359 295.422 C 209.373 295.262,207.814 294.792,206.894 294.378 C 205.975 293.964,204.759 293.625,204.192 293.625 C 203.625 293.625,202.495 293.343,201.680 292.998 C 200.866 292.652,198.855 292.112,197.211 291.796 C 192.334 290.861,190.650 288.866,193.825 287.784 C 195.700 287.146,195.746 287.124,197.809 285.863 C 198.685 285.327,199.974 284.616,200.672 284.282 C 201.370 283.949,202.625 283.222,203.461 282.667 C 204.296 282.113,205.320 281.438,205.735 281.168 C 211.363 277.512,220.758 267.786,224.874 261.355 C 225.505 260.369,226.320 259.114,226.686 258.566 C 227.052 258.018,228.012 256.189,228.820 254.502 C 229.628 252.815,230.452 251.334,230.652 251.211 C 230.851 251.088,231.137 250.406,231.287 249.697 C 231.437 248.987,231.884 247.869,232.280 247.211 C 232.677 246.554,233.124 245.350,233.275 244.536 C 233.426 243.722,233.791 242.856,234.086 242.611 C 234.381 242.366,234.742 241.329,234.888 240.306 C 235.034 239.283,235.474 237.639,235.865 236.653 C 236.509 235.027,237.220 231.997,238.248 226.494 C 238.601 224.603,238.910 221.941,239.892 212.351 C 240.407 207.315,240.073 183.729,239.457 181.673 C 239.104 180.496,239.148 180.197,239.738 179.756 C 240.698 179.038,241.215 179.153,248.406 181.680 C 253.965 183.633,260.215 184.280,262.351 183.123 C 263.008 182.766,263.753 182.474,264.006 182.473 C 264.775 182.468,267.264 178.653,267.560 177.025 C 267.713 176.185,268.149 174.691,268.529 173.705 C 268.909 172.719,269.350 170.657,269.510 169.124 C 269.670 167.590,270.052 165.728,270.360 164.986 C 270.669 164.244,271.098 162.072,271.315 160.159 C 271.531 158.247,271.955 156.075,272.257 155.333 C 272.558 154.591,272.925 152.750,273.072 151.243 C 273.219 149.735,273.585 147.915,273.884 147.198 C 274.183 146.482,274.628 144.611,274.871 143.042 C 275.115 141.472,275.560 139.796,275.861 139.317 C 276.162 138.838,276.532 137.565,276.684 136.489 C 276.836 135.412,277.304 133.891,277.723 133.108 C 278.143 132.325,278.487 131.324,278.489 130.882 C 278.490 130.441,278.848 129.542,279.283 128.884 C 279.718 128.227,280.078 127.420,280.083 127.092 C 280.088 126.763,280.344 126.046,280.653 125.498 C 280.962 124.950,281.588 123.785,282.043 122.908 C 284.304 118.557,287.720 114.252,293.424 108.566 C 300.258 101.753,300.739 101.436,303.807 101.722 C 312.334 102.519,314.739 92.178,306.978 88.088 C 302.464 85.709,297.451 89.672,297.353 95.699 C 297.287 99.731,297.080 100.173,293.665 103.560 C 289.703 107.489,283.602 112.749,283.005 112.749 C 282.855 112.749,282.421 113.031,282.040 113.376 C 281.061 114.261,279.086 113.207,278.329 111.394 C 278.022 110.659,277.589 109.945,277.366 109.808 C 277.144 109.670,276.844 108.797,276.699 107.866 C 276.555 106.936,276.108 105.189,275.705 103.984 C 273.705 97.992,274.236 88.922,276.623 88.287 C 278.770 87.717,280.280 84.929,280.260 81.576 C 280.239 78.248,280.274 78.308,276.696 75.358 C 272.976 72.291,266.596 76.128,266.257 81.636 C 266.091 84.346,266.116 84.423,268.183 87.515 C 269.991 90.219,270.106 99.148,268.443 107.802 C 267.590 112.246,265.143 114.818,262.531 114.017 C 260.083 113.267,258.864 112.108,256.909 108.675 C 256.546 108.037,255.974 107.211,255.638 106.839 C 254.262 105.319,254.123 102.808,255.253 99.903 L 256.299 97.217 255.540 95.534 C 253.084 90.087,244.284 88.870,242.794 93.771 C 242.652 94.239,242.282 94.911,241.973 95.264 C 239.496 98.091,242.982 103.877,247.692 104.757 C 248.653 104.936,249.498 105.150,249.569 105.231 C 250.186 105.934,251.793 109.538,251.793 110.220 C 251.793 110.696,252.150 112.042,252.586 113.212 C 253.379 115.339,254.668 122.250,254.692 124.502 C 254.771 131.875,242.356 128.044,240.402 120.093 C 239.966 118.316,235.105 112.351,234.094 112.351 C 233.846 112.351,233.336 111.992,232.961 111.554 C 232.586 111.116,231.938 110.757,231.522 110.757 C 231.105 110.757,229.983 110.402,229.028 109.969 C 227.815 109.419,226.414 109.178,224.387 109.172 C 221.335 109.163,220.896 108.909,218.074 105.523 C 216.565 103.713,210.478 98.748,208.903 98.043 C 208.432 97.832,207.936 97.481,207.802 97.265 C 207.668 97.048,206.889 96.656,206.070 96.393 C 205.251 96.130,204.298 95.669,203.952 95.367 C 201.375 93.125,190.624 93.040,185.857 95.225 C 184.980 95.627,183.841 96.077,183.325 96.225 C 182.355 96.504,180.217 97.816,178.486 99.195 C 177.938 99.632,177.330 99.992,177.135 99.995 C 176.572 100.003,171.891 104.065,168.058 107.870 L 165.798 110.114 161.086 110.395 C 158.495 110.550,156.016 110.820,155.578 110.997 C 152.633 112.181,147.279 117.492,146.845 119.659 C 146.713 120.322,146.292 121.208,145.912 121.629 C 144.770 122.890,144.913 130.732,146.116 132.863 C 146.609 133.736,147.012 134.650,147.012 134.894 C 147.012 135.634,152.454 140.570,153.966 141.202 C 155.408 141.804,156.061 144.153,154.974 144.824 C 154.752 144.962,154.300 145.645,153.971 146.342 C 153.642 147.039,153.078 148.147,152.717 148.805 C 150.721 152.449,148.606 156.757,148.606 157.181 C 148.606 157.401,148.271 158.206,147.862 158.970 C 147.453 159.734,146.994 160.924,146.843 161.614 C 146.691 162.305,146.219 163.553,145.794 164.388 C 145.368 165.223,145.016 166.271,145.011 166.718 C 145.006 167.164,144.674 168.253,144.273 169.137 C 143.871 170.020,143.410 171.634,143.247 172.722 C 143.085 173.811,142.681 175.329,142.350 176.096 C 142.019 176.863,141.602 178.859,141.424 180.531 C 140.647 187.810,137.874 188.819,136.036 182.491 C 135.557 180.840,135.821 171.520,136.423 168.855 C 136.736 167.469,137.110 164.721,137.253 162.749 C 137.584 158.178,137.657 157.948,138.957 157.391 C 143.155 155.595,144.314 150.702,141.214 147.861 C 136.921 143.927,129.175 149.833,133.115 154.036 C 134.271 155.270,134.421 159.319,133.370 160.971 C 133.027 161.510,132.617 162.759,132.459 163.745 C 132.174 165.532,131.952 166.065,129.505 170.855 C 125.903 177.904,121.522 177.823,116.903 170.622 C 116.093 169.359,115.096 167.841,114.687 167.247 C 114.279 166.653,113.936 165.936,113.927 165.654 C 113.917 165.371,113.666 164.458,113.369 163.626 C 112.905 162.323,112.914 161.944,113.432 160.904 C 115.907 155.943,110.764 149.737,106.005 151.942 C 99.958 154.744,100.303 160.685,106.675 163.467 C 110.247 165.026,110.269 165.050,110.563 167.657 C 110.704 168.902,111.151 170.996,111.558 172.311 C 111.964 173.625,112.420 175.850,112.569 177.253 C 112.719 178.657,113.081 180.377,113.372 181.076 C 113.664 181.775,114.098 184.608,114.336 187.373 C 114.574 190.137,115.032 193.028,115.353 193.797 C 115.674 194.565,115.936 195.513,115.936 195.904 C 115.936 196.909,118.388 201.690,119.223 202.313 C 119.607 202.600,119.920 203.003,119.920 203.210 C 119.920 203.894,124.185 207.748,126.287 208.964 C 127.424 209.622,128.571 210.360,128.837 210.605 C 129.103 210.850,129.760 211.185,130.297 211.350 C 131.243 211.639,135.057 213.277,136.234 213.899 C 137.191 214.405,137.412 216.095,137.824 226.086 C 138.107 232.952,138.396 236.151,138.847 237.404 C 139.704 239.787,139.530 244.757,138.584 244.938 C 138.125 245.026,137.775 244.604,137.430 243.548 C 137.158 242.714,136.616 241.620,136.225 241.117 C 135.833 240.613,135.397 239.672,135.255 239.025 C 135.113 238.378,134.834 237.849,134.635 237.849 C 134.436 237.849,133.996 237.266,133.657 236.554 C 133.317 235.842,132.643 234.627,132.157 233.854 C 131.672 233.081,130.916 231.856,130.478 231.132 C 125.985 223.710,118.243 216.628,113.637 215.726 C 110.552 215.122,105.179 218.015,105.179 220.280 C 105.179 220.636,104.844 221.554,104.434 222.318 C 102.639 225.668,102.487 242.351,104.203 247.809 C 104.513 248.795,104.931 250.767,105.131 252.191 C 105.332 253.616,105.873 255.896,106.333 257.258 C 106.794 258.621,107.177 260.145,107.185 260.645 C 107.192 261.145,107.545 262.271,107.968 263.147 C 108.392 264.024,108.744 265.150,108.751 265.649 C 108.759 266.149,109.213 267.623,109.761 268.924 C 110.309 270.226,110.757 271.583,110.757 271.940 C 110.757 272.297,111.016 273.154,111.334 273.844 C 111.651 274.535,112.256 276.086,112.678 277.291 C 114.188 281.599,114.450 282.292,115.168 283.865 C 115.567 284.741,116.002 285.973,116.134 286.602 C 116.266 287.231,116.644 288.015,116.973 288.345 C 117.627 288.999,117.594 291.463,116.932 291.390 C 116.713 291.366,116.281 290.828,115.971 290.195 C 115.661 289.562,115.093 288.819,114.708 288.545 C 114.322 288.271,113.890 287.511,113.746 286.857 C 113.602 286.202,113.321 285.566,113.122 285.442 C 112.923 285.319,112.123 283.838,111.345 282.151 C 110.567 280.464,109.579 278.421,109.149 277.610 C 108.718 276.800,108.367 275.897,108.367 275.603 C 108.367 275.309,108.018 274.386,107.593 273.551 C 107.167 272.717,106.695 271.469,106.544 270.778 C 106.392 270.087,105.934 268.897,105.525 268.133 C 105.116 267.370,104.777 266.384,104.772 265.942 C 104.767 265.501,104.410 264.361,103.978 263.409 C 103.546 262.457,103.026 260.664,102.822 259.425 C 102.618 258.185,102.190 256.544,101.871 255.777 C 101.552 255.010,101.166 253.339,101.012 252.063 C 100.858 250.788,100.470 249.115,100.149 248.347 C 99.828 247.579,99.397 244.947,99.191 242.499 C 98.985 240.051,98.617 237.305,98.373 236.397 C 97.293 232.387,98.780 221.534,100.997 217.236 C 102.193 214.918,102.377 214.264,102.020 213.598 C 101.781 213.151,101.475 211.733,101.341 210.446 L 101.096 208.106 102.983 205.982 C 107.060 201.391,103.361 195.953,97.276 197.592 C 93.274 198.670,92.822 203.719,96.418 207.174 L 98.008 208.702 98.008 212.691 C 98.008 220.315,94.960 225.105,90.114 225.097 C 85.889 225.091,83.435 223.026,78.986 215.737 C 78.515 214.965,76.455 210.766,74.819 207.242 L 74.019 205.520 74.826 204.652 C 77.150 202.154,75.998 196.797,72.927 195.823 C 68.138 194.303,62.981 200.533,66.268 203.870 C 66.653 204.261,67.185 204.893,67.449 205.273 C 67.744 205.699,68.760 206.081,70.096 206.271 L 72.263 206.578 73.216 208.949 C 74.734 212.724,75.511 224.677,74.480 228.389 C 73.673 231.295,69.772 234.165,65.047 235.329 C 63.574 235.692,62.157 235.116,61.664 233.953 C 59.959 229.933,55.824 229.060,52.732 232.065 C 49.095 235.600,51.482 241.036,56.671 241.036 C 58.832 241.036,60.895 240.261,61.188 239.340 C 61.545 238.215,63.250 237.725,65.133 238.207 C 66.013 238.432,67.485 238.726,68.403 238.861 C 69.322 238.996,70.270 239.342,70.509 239.631 C 70.749 239.920,71.548 240.269,72.285 240.407 C 73.021 240.545,74.046 240.972,74.561 241.356 C 75.076 241.739,75.946 242.294,76.494 242.589 C 77.361 243.056,82.347 248.411,83.466 250.078 C 83.685 250.405,84.582 251.445,85.458 252.389 C 86.335 253.334,87.500 254.679,88.048 255.378 C 88.596 256.077,89.448 257.125,89.943 257.707 C 90.437 258.289,90.942 259.079,91.065 259.462 C 91.188 259.846,91.438 260.159,91.621 260.159 C 91.804 260.159,92.320 260.742,92.769 261.454 C 93.217 262.166,94.481 264.004,95.577 265.538 C 96.672 267.072,97.848 268.865,98.190 269.522 C 98.531 270.179,99.249 271.434,99.784 272.311 C 100.320 273.187,100.965 274.353,101.219 274.900 C 101.472 275.448,101.840 276.165,102.037 276.494 C 102.394 277.089,103.032 278.442,104.386 281.474 C 104.778 282.351,105.565 284.056,106.135 285.265 C 106.705 286.473,107.171 287.749,107.171 288.099 C 107.171 288.450,107.505 289.165,107.913 289.687 C 108.321 290.210,108.791 291.086,108.956 291.633 C 109.122 292.181,109.483 292.898,109.758 293.227 C 110.033 293.556,110.474 294.497,110.737 295.319 C 111.001 296.140,111.361 296.813,111.536 296.813 C 111.712 296.813,112.095 297.395,112.387 298.108 C 112.900 299.356,114.295 301.673,115.136 302.674 C 115.359 302.940,115.765 303.655,116.038 304.262 C 116.311 304.870,116.757 305.639,117.031 305.971 C 123.799 314.184,126.467 316.513,129.547 316.898 C 133.720 317.420,136.628 315.932,137.271 312.948 C 137.413 312.291,137.825 311.305,138.187 310.757 C 139.001 309.525,139.379 293.082,138.672 289.688 C 136.846 280.928,136.794 278.874,138.395 278.889 C 138.642 278.891,139.831 280.159,141.036 281.708 C 144.147 285.705,156.165 297.588,161.138 301.583 C 163.448 303.439,165.339 305.097,165.339 305.268 C 165.339 305.438,165.546 305.578,165.800 305.578 C 166.054 305.578,167.262 306.340,168.484 307.271 C 169.706 308.202,171.605 309.536,172.704 310.235 C 173.802 310.934,175.146 311.831,175.690 312.227 C 176.234 312.624,177.130 313.179,177.682 313.461 C 178.234 313.743,179.402 314.408,180.279 314.940 C 181.155 315.472,182.533 316.269,183.340 316.712 C 184.146 317.156,184.919 317.700,185.056 317.923 C 185.194 318.145,185.630 318.327,186.026 318.327 C 186.421 318.327,187.173 318.657,187.695 319.060 C 188.218 319.463,189.261 320.003,190.014 320.260 C 190.767 320.517,191.663 320.970,192.006 321.266 C 192.349 321.563,193.110 321.919,193.697 322.059 C 194.285 322.198,195.019 322.566,195.331 322.877 C 195.642 323.188,196.595 323.632,197.450 323.863 C 198.305 324.094,199.714 324.646,200.582 325.090 C 201.450 325.533,202.392 325.896,202.675 325.896 C 202.958 325.896,203.859 326.255,204.677 326.693 C 205.494 327.131,206.487 327.490,206.882 327.490 C 207.278 327.490,208.267 327.824,209.080 328.233 C 209.893 328.642,211.275 329.098,212.151 329.248 C 213.028 329.398,214.821 329.865,216.135 330.286 C 219.562 331.384,223.282 332.267,226.494 332.744 C 236.180 334.182,240.216 335.628,237.894 336.829 C 237.208 337.184,235.886 338.010,234.956 338.665 C 234.027 339.319,232.281 340.523,231.076 341.339 C 227.975 343.439,223.818 346.484,223.074 347.201 C 222.727 347.535,222.316 347.809,222.160 347.809 C 222.005 347.809,220.823 348.660,219.535 349.701 C 218.246 350.742,216.416 352.169,215.469 352.873 C 214.521 353.577,213.070 354.742,212.246 355.463 C 211.421 356.183,209.676 357.669,208.367 358.765 C 200.259 365.554,192.855 373.948,189.963 379.630 C 189.252 381.026,188.281 382.346,187.805 382.563 C 186.657 383.086,174.484 382.266,171.409 381.459 C 170.152 381.129,167.600 380.696,165.737 380.497 C 163.875 380.299,161.723 379.875,160.956 379.554 C 160.189 379.234,158.415 378.842,157.012 378.683 C 155.610 378.524,153.728 378.060,152.829 377.652 C 151.931 377.244,150.655 376.906,149.994 376.901 C 149.333 376.896,148.168 376.559,147.404 376.152 C 146.641 375.745,145.135 375.282,144.058 375.122 C 142.982 374.963,141.460 374.489,140.678 374.069 C 139.895 373.650,138.889 373.307,138.441 373.307 C 137.994 373.307,137.210 373.015,136.701 372.657 C 136.191 372.300,135.030 371.847,134.122 371.649 C 133.213 371.452,131.663 370.911,130.677 370.448 C 129.691 369.984,128.167 369.300,127.291 368.927 C 121.809 366.594,111.952 361.723,111.952 361.346 C 111.952 361.167,111.436 360.906,110.806 360.768 C 110.176 360.629,109.065 360.077,108.338 359.541 C 107.611 359.005,106.865 358.566,106.679 358.566 C 106.494 358.566,105.856 358.231,105.263 357.822 C 104.669 357.413,102.749 356.163,100.996 355.044 C 99.243 353.926,97.525 352.737,97.178 352.402 C 96.831 352.067,96.362 351.793,96.137 351.793 C 95.730 351.793,93.209 349.978,91.998 348.814 C 91.651 348.480,91.249 348.207,91.104 348.207 C 90.783 348.207,84.984 343.797,83.047 342.079 C 82.276 341.396,81.184 340.478,80.620 340.040 C 75.375 335.967,64.380 324.941,59.167 318.526 C 57.208 316.116,55.241 313.762,54.795 313.297 C 54.349 312.831,53.536 311.782,52.988 310.966 C 52.440 310.149,51.723 309.184,51.394 308.820 C 50.592 307.931,48.406 304.733,43.189 296.813 C 42.251 295.388,41.284 293.775,41.040 293.227 C 40.796 292.679,40.158 291.514,39.622 290.637 C 39.086 289.761,38.289 288.327,37.850 287.450 C 37.411 286.574,36.783 285.509,36.454 285.083 C 36.126 284.658,35.857 284.008,35.857 283.638 C 35.857 283.268,35.597 282.751,35.279 282.487 C 34.962 282.224,34.488 281.350,34.225 280.546 C 33.963 279.742,33.436 278.682,33.055 278.191 C 32.673 277.700,32.246 276.687,32.106 275.940 C 31.966 275.193,31.599 274.372,31.290 274.116 C 30.981 273.860,30.607 273.095,30.457 272.416 C 30.308 271.737,29.849 270.629,29.437 269.954 C 29.025 269.278,28.682 268.456,28.674 268.127 C 28.667 267.799,28.219 266.633,27.680 265.538 C 27.141 264.442,26.699 263.231,26.697 262.847 C 26.695 262.463,26.335 261.480,25.896 260.662 C 25.458 259.844,25.100 258.722,25.100 258.167 C 25.100 257.613,24.755 256.517,24.334 255.731 C 23.913 254.945,23.389 253.335,23.169 252.151 C 22.949 250.968,22.488 249.462,22.144 248.805 C 21.800 248.147,21.518 247.111,21.516 246.501 C 21.515 245.892,21.167 244.363,20.743 243.103 C 20.318 241.844,19.855 239.832,19.714 238.634 C 19.573 237.435,19.131 235.289,18.732 233.865 C 18.333 232.440,17.831 229.482,17.616 227.291 C 17.401 225.100,16.987 222.500,16.697 221.514 C 15.799 218.467,15.914 181.501,16.832 178.088 C 17.215 176.663,17.690 173.592,17.888 171.263 C 18.085 168.934,18.449 166.652,18.696 166.191 C 18.942 165.730,19.329 163.875,19.556 162.069 C 19.782 160.263,20.219 158.243,20.527 157.580 C 20.835 156.917,21.260 155.269,21.472 153.918 C 21.684 152.567,22.115 150.953,22.431 150.332 C 22.746 149.711,23.132 148.322,23.289 147.246 C 23.446 146.169,23.918 144.648,24.337 143.865 C 24.756 143.082,25.100 142.120,25.100 141.727 C 25.100 141.334,25.548 139.947,26.096 138.645 C 26.643 137.344,27.092 135.988,27.092 135.633 C 27.092 135.277,27.450 134.530,27.888 133.973 C 28.327 133.416,28.685 132.599,28.685 132.157 C 28.685 131.422,29.671 129.064,31.468 125.498 C 31.855 124.731,32.295 123.533,32.446 122.836 C 32.597 122.139,32.966 121.365,33.267 121.116 C 33.567 120.866,33.926 120.149,34.064 119.522 C 34.201 118.895,34.562 118.176,34.866 117.924 C 35.169 117.672,35.630 116.808,35.889 116.004 C 36.149 115.200,36.696 114.221,37.105 113.829 C 37.514 113.437,37.849 112.775,37.849 112.359 C 37.849 111.942,38.046 111.479,38.288 111.329 C 38.529 111.180,38.975 110.464,39.278 109.738 C 39.582 109.012,40.284 107.734,40.839 106.898 C 41.393 106.062,42.020 105.110,42.231 104.781 C 42.442 104.452,43.083 103.478,43.656 102.616 C 44.228 101.754,44.863 100.678,45.066 100.226 C 45.269 99.773,45.972 98.685,46.628 97.809 C 47.285 96.932,48.482 95.229,49.289 94.024 C 50.095 92.819,51.176 91.295,51.690 90.637 C 52.203 89.980,52.930 89.032,53.304 88.530 C 54.095 87.470,55.482 85.799,56.517 84.661 C 56.915 84.223,57.853 83.057,58.602 82.071 C 59.350 81.084,60.321 79.898,60.758 79.435 C 61.196 78.973,63.078 76.935,64.940 74.906 C 66.803 72.878,68.921 70.658,69.648 69.972 C 70.374 69.286,72.167 67.560,73.632 66.137 C 75.096 64.713,77.998 62.150,80.080 60.441 C 82.161 58.731,84.337 56.938,84.915 56.455 C 86.044 55.512,86.944 54.821,89.442 52.983 C 90.319 52.339,91.305 51.577,91.633 51.291 C 92.237 50.766,93.696 49.799,97.510 47.398 C 98.660 46.674,99.602 45.965,99.602 45.823 C 99.602 45.682,100.184 45.255,100.896 44.875 C 101.609 44.494,102.908 43.748,103.785 43.216 C 104.661 42.683,106.006 41.930,106.773 41.542 C 107.540 41.154,108.222 40.719,108.288 40.575 C 108.354 40.431,109.788 39.657,111.475 38.854 C 113.162 38.051,114.811 37.232,115.139 37.033 C 116.294 36.334,121.402 33.865,121.692 33.865 C 121.854 33.865,122.442 33.506,122.999 33.068 C 123.556 32.629,124.363 32.271,124.792 32.271 C 125.221 32.271,126.027 31.912,126.585 31.474 C 127.142 31.036,127.887 30.676,128.241 30.674 C 128.595 30.672,129.781 30.229,130.876 29.690 C 131.972 29.151,133.118 28.705,133.422 28.698 C 133.727 28.691,134.713 28.353,135.614 27.948 C 137.642 27.035,140.724 25.955,142.829 25.421 C 143.705 25.198,145.363 24.660,146.513 24.223 C 147.663 23.787,149.367 23.333,150.298 23.214 C 151.230 23.095,152.475 22.754,153.064 22.457 C 153.654 22.159,155.447 21.732,157.048 21.508 C 158.650 21.284,160.498 20.853,161.155 20.551 C 161.813 20.249,163.516 19.887,164.940 19.747 C 166.365 19.606,169.143 19.152,171.116 18.737 C 173.088 18.323,177.659 17.804,181.275 17.585 C 184.890 17.367,188.566 17.026,189.442 16.829 C 192.119 16.228,205.817 16.300,208.964 16.932 M246.981 135.400 C 251.730 140.253,253.191 141.449,255.976 142.761 C 259.695 144.512,260.868 154.196,258.012 159.562 C 257.662 160.219,257.374 161.073,257.373 161.460 C 257.360 165.219,253.983 167.517,248.892 167.233 C 243.078 166.908,234.060 161.125,233.243 157.198 C 233.104 156.526,232.753 155.601,232.463 155.143 C 232.174 154.685,231.730 153.520,231.476 152.554 C 230.912 150.410,229.239 146.754,228.232 145.464 C 226.630 143.413,227.546 141.957,231.015 141.042 C 233.857 140.293,236.463 138.083,239.343 133.979 C 239.836 133.276,240.239 132.503,240.239 132.261 C 240.239 131.518,241.038 130.279,241.517 130.279 C 241.766 130.279,244.224 132.583,246.981 135.400 M270.384 334.931 C 270.271 335.331,270.057 336.285,269.907 337.052 C 269.758 337.819,269.311 338.984,268.915 339.641 C 268.519 340.299,268.072 341.497,267.923 342.303 C 267.773 343.110,267.399 343.866,267.092 343.984 C 266.434 344.236,266.351 345.258,266.959 345.634 C 267.193 345.779,267.483 345.521,267.603 345.060 C 267.724 344.600,268.008 344.223,268.236 344.223 C 268.464 344.223,269.238 343.775,269.956 343.227 C 270.674 342.679,271.507 342.231,271.808 342.231 C 272.631 342.231,274.900 339.716,274.900 338.805 C 274.900 337.963,272.677 334.661,272.110 334.661 C 271.927 334.661,271.511 334.559,271.184 334.433 C 270.820 334.294,270.510 334.487,270.384 334.931 " stroke="none" fill="#fbfbfb" fill-rule="evenodd"></path></g></svg>